<svg version="1.1" id="Layer_1" xmlns="http://www.w3.org/2000/svg" xmlns:xlink="http://www.w3.org/1999/xlink" x="0px" y="0px"
	 width="100%" viewBox="0 0 512 512" enable-background="new 0 0 512 512" xml:space="preserve">
<path fill="#000000" opacity="1.000000" stroke="none" 
	d="
M1.000000,126.250000 
	C10.191988,127.129387 18.539104,131.063858 27.095961,134.156860 
	C121.098648,168.135529 213.273346,206.680618 305.220123,245.788895 
	C311.196564,248.330902 317.149902,250.927887 323.142487,253.431000 
	C328.926666,255.847031 335.003784,254.470551 340.933105,254.500885 
	C351.756683,254.556290 362.581970,254.112106 373.407806,253.993073 
	C376.087738,253.963608 378.118652,253.196655 379.957275,251.130844 
	C388.959656,241.015747 400.725311,235.726608 413.828430,234.917969 
	C448.529327,232.776474 476.401459,245.790558 495.474976,275.243958 
	C505.125061,290.145660 508.002838,306.582520 499.797760,323.224579 
	C492.413086,338.202606 478.998627,345.254242 463.182709,348.055939 
	C429.768036,353.975189 389.934265,333.353088 375.221191,302.733856 
	C373.050232,298.215942 371.258820,293.554596 370.600128,288.551910 
	C370.120178,284.906738 368.541870,283.438599 364.498413,283.139252 
	C342.279022,281.494476 320.094482,279.384003 297.891663,277.508179 
	C280.989685,276.080170 264.083649,274.689789 247.166077,273.467133 
	C244.209167,273.253387 241.686829,272.266541 239.146820,271.017761 
	C191.845917,247.762680 146.511200,221.046753 101.831749,193.162003 
	C67.905693,171.988510 34.735561,149.674713 1.324234,127.115387 
	C1.000000,127.000000 1.000000,126.500000 1.000000,126.250000 
M469.953278,269.542847 
	C456.464691,256.886902 440.720490,250.455231 421.983795,251.263367 
	C396.914734,252.344635 382.738068,275.549988 393.641083,298.133484 
	C404.199921,320.004059 430.533203,333.935455 454.963654,330.575653 
	C472.182098,328.207642 483.733429,315.997833 483.845825,300.244659 
	C483.932312,288.118988 478.406738,278.566956 469.953278,269.542847 
M236.647522,252.306015 
	C237.795151,251.348373 239.042221,250.486710 240.074188,249.417435 
	C246.579422,242.677032 246.216583,232.475632 239.301941,226.292587 
	C232.271622,220.006119 221.696823,220.855957 215.767685,228.183899 
	C211.087265,233.968521 210.981934,241.880478 215.503021,248.065353 
	C220.140167,254.409012 227.709274,256.111969 236.647522,252.306015 
z"/>
<path fill="#000000" opacity="1.000000" stroke="none" 
	d="
M283.468384,513.000000 
	C281.137390,511.020508 278.407013,511.229156 276.119110,510.322205 
	C257.622864,502.990112 245.144318,489.429718 236.571976,471.970917 
	C227.337723,453.163940 223.981720,433.564362 229.518799,412.933350 
	C232.778854,400.786591 238.844635,390.530365 249.516159,383.489014 
	C251.857162,381.944336 252.364609,380.465271 251.807663,377.767365 
	C247.143845,355.175323 242.642532,332.549774 238.092316,309.934296 
	C237.797333,308.468201 237.581650,306.980621 237.191162,305.540466 
	C236.464722,302.861206 237.645050,301.772003 240.188461,301.769897 
	C250.012451,301.761780 259.836517,301.790649 269.660400,301.763977 
	C273.394104,301.753815 273.322937,304.311523 273.324463,306.920624 
	C273.333130,321.740509 273.298279,336.560822 273.406128,351.380066 
	C273.456970,358.365448 273.797272,365.348602 273.997528,372.333038 
	C274.056610,374.393433 274.080292,376.250092 276.892548,376.696442 
	C304.582672,381.091339 321.112976,398.923340 331.673798,423.263519 
	C340.017914,442.494751 341.873688,462.368225 334.577484,482.508881 
	C329.126617,497.555511 318.959320,507.779816 303.270569,512.777710 
	C296.645599,513.000000 290.291199,513.000000 283.468384,513.000000 
M289.172607,400.283936 
	C269.491302,392.386414 252.864441,399.961639 245.938934,420.017700 
	C242.938599,428.706573 242.440475,437.604370 244.349365,446.559387 
	C248.317307,465.173889 257.309875,480.358551 274.814850,489.265594 
	C290.665222,497.330811 307.802643,491.907745 316.146179,476.184296 
	C321.120880,466.809448 322.430298,456.741852 320.769592,446.209991 
	C317.602722,426.126068 308.259064,410.313049 289.172607,400.283936 
z"/>
<path fill="#000000" opacity="1.000000" stroke="none" 
	d="
M110.750000,1.000000 
	C118.734734,12.442385 126.480461,23.877352 134.202271,35.328453 
	C166.066299,82.581451 195.458908,131.368958 224.270554,180.515335 
	C225.047791,181.841110 226.492844,183.095428 225.723206,185.075668 
	C223.691208,185.619034 222.245483,184.251526 220.703873,183.469818 
	C206.443451,176.238602 192.232986,168.908722 177.962280,161.697998 
	C175.317917,160.361862 173.436264,158.691223 172.263870,155.822815 
	C151.856491,105.893433 131.355194,56.002434 110.888237,6.097379 
	C110.325890,4.726192 109.582069,3.369762 109.937996,1.392610 
	C110.000000,1.000000 110.500000,1.000000 110.750000,1.000000 
z"/>
</svg>